{
	"asset":{
		"generator":"Khronos glTF Blender I/O v5.2.40",
		"version":"2.0"
	},
	"scene":0,
	"scenes":[
		{
			"name":"Scene",
			"nodes":[
				0,
				1,
				2,
				3,
				4,
				5,
				6,
				7,
				8,
				9,
				10
			]
		}
	],
	"nodes":[
		{
			"mesh":0,
			"name":"arm",
			"rotation":[
				0,
				0,
				0.335241436958313,
				0.9421323537826538
			],
			"scale":[
				0.13289982080459595,
				0.13289982080459595,
				0.13289982080459595
			],
			"translation":[
				0.35254764556884766,
				1.3484617471694946,
				0.066407710313797
			]
		},
		{
			"name":"Empty"
		},
		{
			"name":"Empty.001"
		},
		{
			"name":"Empty.002"
		},
		{
			"mesh":1,
			"name":"foot",
			"scale":[
				-0.11707615852355957,
				-0.11707615852355957,
				-0.11707615852355957
			],
			"translation":[
				0.08779357373714447,
				0.07192984223365784,
				0.0623900480568409
			]
		},
		{
			"mesh":2,
			"name":"hand",
			"rotation":[
				0,
				0,
				-0.39618393778800964,
				0.9181711673736572
			],
			"scale":[
				0.0770190954208374,
				0.0770190954208374,
				0.0770190954208374
			],
			"translation":[
				0.5622448325157166,
				1.066916823387146,
				0.06744444370269775
			]
		},
		{
			"mesh":3,
			"name":"head",
			"rotation":[
				0.7071068286895752,
				0,
				0,
				0.7071068286895752
			],
			"translation":[
				0,
				1.6726239919662476,
				0.10550400614738464
			]
		},
		{
			"mesh":4,
			"name":"hips",
			"scale":[
				0.21037887036800385,
				0.15005505084991455,
				0.15005505084991455
			],
			"translation":[
				0,
				1.109795093536377,
				0
			]
		},
		{
			"mesh":5,
			"name":"leg",
			"scale":[
				0.07195472717285156,
				0.07195472717285156,
				0.07195472717285156
			],
			"translation":[
				0.08101628720760345,
				0.2802719175815582,
				0
			]
		},
		{
			"mesh":6,
			"name":"NECK",
			"rotation":[
				0,
				-1,
				0,
				1.6292068494294654e-07
			],
			"scale":[
				-0.07885775715112686,
				-0.07885775715112686,
				-0.06287062913179398
			],
			"translation":[
				0,
				1.5377731323242188,
				0.06259776651859283
			]
		},
		{
			"mesh":7,
			"name":"torso",
			"scale":[
				0.14439642429351807,
				0.14439642429351807,
				0.14439642429351807
			],
			"translation":[
				0,
				1.3970640897750854,
				0
			]
		}
	],
	"materials":[
		{
			"name":"Material",
			"pbrMetallicRoughness":{
				"baseColorTexture":{
					"index":0
				},
				"metallicFactor":0,
				"roughnessFactor":0.5
			}
		}
	],
	"meshes":[
		{
			"name":"Cube.006",
			"primitives":[
				{
					"attributes":{
						"POSITION":0,
						"NORMAL":1,
						"TEXCOORD_0":2
					},
					"indices":3,
					"material":0
				}
			]
		},
		{
			"name":"Cube.005",
			"primitives":[
				{
					"attributes":{
						"POSITION":4,
						"NORMAL":5,
						"TEXCOORD_0":6
					},
					"indices":7,
					"material":0
				}
			]
		},
		{
			"name":"Cube.007",
			"primitives":[
				{
					"attributes":{
						"POSITION":8,
						"NORMAL":9,
						"TEXCOORD_0":10
					},
					"indices":11,
					"material":0
				}
			]
		},
		{
			"name":"Plane",
			"primitives":[
				{
					"attributes":{
						"POSITION":12,
						"NORMAL":13,
						"TEXCOORD_0":14
					},
					"indices":15,
					"material":0
				}
			]
		},
		{
			"name":"Cube.003",
			"primitives":[
				{
					"attributes":{
						"POSITION":16,
						"NORMAL":17,
						"TEXCOORD_0":18
					},
					"indices":19,
					"material":0
				}
			]
		},
		{
			"name":"Cylinder.001",
			"primitives":[
				{
					"attributes":{
						"POSITION":20,
						"NORMAL":21,
						"TEXCOORD_0":22
					},
					"indices":23,
					"material":0
				}
			]
		},
		{
			"name":"Cylinder.002",
			"primitives":[
				{
					"attributes":{
						"POSITION":24,
						"NORMAL":25,
						"TEXCOORD_0":26
					},
					"indices":27,
					"material":0
				}
			]
		},
		{
			"name":"Cube.004",
			"primitives":[
				{
					"attributes":{
						"POSITION":28,
						"NORMAL":29,
						"TEXCOORD_0":30
					},
					"indices":31,
					"material":0
				}
			]
		}
	],
	"textures":[
		{
			"sampler":0,
			"source":0
		}
	],
	"images":[
		{
			"mimeType":"image/png",
			"name":"ryujinTex",
			"uri":"ryujinTex.png"
		}
	],
	"accessors":[
		{
			"bufferView":0,
			"componentType":5126,
			"count":98,
			"max":[
				0.5069326162338257,
				1.9176411628723145,
				0.6234679222106934
			],
			"min":[
				-1.0392566919326782,
				-1.694006323814392,
				-0.6318200826644897
			],
			"type":"VEC3"
		},
		{
			"bufferView":1,
			"componentType":5126,
			"count":98,
			"type":"VEC3"
		},
		{
			"bufferView":2,
			"componentType":5126,
			"count":98,
			"type":"VEC2"
		},
		{
			"bufferView":3,
			"componentType":5123,
			"count":156,
			"type":"SCALAR"
		},
		{
			"bufferView":4,
			"componentType":5126,
			"count":48,
			"max":[
				0.5501270294189453,
				0.6104784607887268,
				1.1867551803588867
			],
			"min":[
				-0.631399393081665,
				-0.5899081230163574,
				-2.0081443786621094
			],
			"type":"VEC3"
		},
		{
			"bufferView":5,
			"componentType":5126,
			"count":48,
			"type":"VEC3"
		},
		{
			"bufferView":6,
			"componentType":5126,
			"count":48,
			"type":"VEC2"
		},
		{
			"bufferView":7,
			"componentType":5123,
			"count":84,
			"type":"SCALAR"
		},
		{
			"bufferView":8,
			"componentType":5126,
			"count":34,
			"max":[
				0.9986172914505005,
				1.2105239629745483,
				1.1278358697891235
			],
			"min":[
				-1.7900242805480957,
				-0.811358630657196,
				-1.1196540594100952
			],
			"type":"VEC3"
		},
		{
			"bufferView":9,
			"componentType":5126,
			"count":34,
			"type":"VEC3"
		},
		{
			"bufferView":10,
			"componentType":5126,
			"count":34,
			"type":"VEC2"
		},
		{
			"bufferView":11,
			"componentType":5123,
			"count":48,
			"type":"SCALAR"
		},
		{
			"bufferView":12,
			"componentType":5126,
			"count":504,
			"max":[
				0.21670998632907867,
				0.2786305248737335,
				0.16228646039962769
			],
			"min":[
				-0.21670998632907867,
				-0.2947123944759369,
				-0.3421105444431305
			],
			"type":"VEC3"
		},
		{
			"bufferView":13,
			"componentType":5126,
			"count":504,
			"type":"VEC3"
		},
		{
			"bufferView":14,
			"componentType":5126,
			"count":504,
			"type":"VEC2"
		},
		{
			"bufferView":15,
			"componentType":5123,
			"count":666,
			"type":"SCALAR"
		},
		{
			"bufferView":16,
			"componentType":5126,
			"count":107,
			"max":[
				0.9611805081367493,
				0.5586092472076416,
				1.1640106439590454
			],
			"min":[
				-0.9611805081367493,
				-1.0604724884033203,
				-0.6171748638153076
			],
			"type":"VEC3"
		},
		{
			"bufferView":17,
			"componentType":5126,
			"count":107,
			"type":"VEC3"
		},
		{
			"bufferView":18,
			"componentType":5126,
			"count":107,
			"type":"VEC2"
		},
		{
			"bufferView":19,
			"componentType":5123,
			"count":222,
			"type":"SCALAR"
		},
		{
			"bufferView":20,
			"componentType":5126,
			"count":46,
			"max":[
				1.3078954219818115,
				9.342190742492676,
				1.9605369567871094
			],
			"min":[
				-1.1600792407989502,
				-2.336871862411499,
				-1.3169561624526978
			],
			"type":"VEC3"
		},
		{
			"bufferView":21,
			"componentType":5126,
			"count":46,
			"type":"VEC3"
		},
		{
			"bufferView":22,
			"componentType":5126,
			"count":46,
			"type":"VEC2"
		},
		{
			"bufferView":23,
			"componentType":5123,
			"count":72,
			"type":"SCALAR"
		},
		{
			"bufferView":24,
			"componentType":5126,
			"count":12,
			"max":[
				0.4860305190086365,
				1.4462380409240723,
				0.5000001192092896
			],
			"min":[
				-0.537074625492096,
				-2.0054399967193604,
				-0.9012113213539124
			],
			"type":"VEC3"
		},
		{
			"bufferView":25,
			"componentType":5126,
			"count":12,
			"type":"VEC3"
		},
		{
			"bufferView":26,
			"componentType":5126,
			"count":12,
			"type":"VEC2"
		},
		{
			"bufferView":27,
			"componentType":5123,
			"count":18,
			"type":"SCALAR"
		},
		{
			"bufferView":28,
			"componentType":5126,
			"count":76,
			"max":[
				0.8966864943504333,
				0.7440924048423767,
				1.290663480758667
			],
			"min":[
				-0.8966864943504333,
				-1.436848521232605,
				-0.28402093052864075
			],
			"type":"VEC3"
		},
		{
			"bufferView":29,
			"componentType":5126,
			"count":76,
			"type":"VEC3"
		},
		{
			"bufferView":30,
			"componentType":5126,
			"count":76,
			"type":"VEC2"
		},
		{
			"bufferView":31,
			"componentType":5123,
			"count":114,
			"type":"SCALAR"
		}
	],
	"bufferViews":[
		{
			"buffer":0,
			"byteLength":1176,
			"byteOffset":0,
			"target":34962
		},
		{
			"buffer":0,
			"byteLength":1176,
			"byteOffset":1176,
			"target":34962
		},
		{
			"buffer":0,
			"byteLength":784,
			"byteOffset":2352,
			"target":34962
		},
		{
			"buffer":0,
			"byteLength":312,
			"byteOffset":3136,
			"target":34963
		},
		{
			"buffer":0,
			"byteLength":576,
			"byteOffset":3448,
			"target":34962
		},
		{
			"buffer":0,
			"byteLength":576,
			"byteOffset":4024,
			"target":34962
		},
		{
			"buffer":0,
			"byteLength":384,
			"byteOffset":4600,
			"target":34962
		},
		{
			"buffer":0,
			"byteLength":168,
			"byteOffset":4984,
			"target":34963
		},
		{
			"buffer":0,
			"byteLength":408,
			"byteOffset":5152,
			"target":34962
		},
		{
			"buffer":0,
			"byteLength":408,
			"byteOffset":5560,
			"target":34962
		},
		{
			"buffer":0,
			"byteLength":272,
			"byteOffset":5968,
			"target":34962
		},
		{
			"buffer":0,
			"byteLength":96,
			"byteOffset":6240,
			"target":34963
		},
		{
			"buffer":0,
			"byteLength":6048,
			"byteOffset":6336,
			"target":34962
		},
		{
			"buffer":0,
			"byteLength":6048,
			"byteOffset":12384,
			"target":34962
		},
		{
			"buffer":0,
			"byteLength":4032,
			"byteOffset":18432,
			"target":34962
		},
		{
			"buffer":0,
			"byteLength":1332,
			"byteOffset":22464,
			"target":34963
		},
		{
			"buffer":0,
			"byteLength":1284,
			"byteOffset":23796,
			"target":34962
		},
		{
			"buffer":0,
			"byteLength":1284,
			"byteOffset":25080,
			"target":34962
		},
		{
			"buffer":0,
			"byteLength":856,
			"byteOffset":26364,
			"target":34962
		},
		{
			"buffer":0,
			"byteLength":444,
			"byteOffset":27220,
			"target":34963
		},
		{
			"buffer":0,
			"byteLength":552,
			"byteOffset":27664,
			"target":34962
		},
		{
			"buffer":0,
			"byteLength":552,
			"byteOffset":28216,
			"target":34962
		},
		{
			"buffer":0,
			"byteLength":368,
			"byteOffset":28768,
			"target":34962
		},
		{
			"buffer":0,
			"byteLength":144,
			"byteOffset":29136,
			"target":34963
		},
		{
			"buffer":0,
			"byteLength":144,
			"byteOffset":29280,
			"target":34962
		},
		{
			"buffer":0,
			"byteLength":144,
			"byteOffset":29424,
			"target":34962
		},
		{
			"buffer":0,
			"byteLength":96,
			"byteOffset":29568,
			"target":34962
		},
		{
			"buffer":0,
			"byteLength":36,
			"byteOffset":29664,
			"target":34963
		},
		{
			"buffer":0,
			"byteLength":912,
			"byteOffset":29700,
			"target":34962
		},
		{
			"buffer":0,
			"byteLength":912,
			"byteOffset":30612,
			"target":34962
		},
		{
			"buffer":0,
			"byteLength":608,
			"byteOffset":31524,
			"target":34962
		},
		{
			"buffer":0,
			"byteLength":228,
			"byteOffset":32132,
			"target":34963
		}
	],
	"samplers":[
		{
			"magFilter":9729,
			"minFilter":9987
		}
	],
	"buffers":[
		{
			"byteLength":32360,
			"uri":"ryujin7.bin"
		}
	]
}
